<svg xmlns="http://www.w3.org/2000/svg" viewBox="0 0 128 128" role="img" aria-label="Psyblr">
  <defs>
    <linearGradient id="bg" x1="0%" y1="0%" x2="100%" y2="100%">
      <stop offset="0%" stop-color="#fdfefe"/>
      <stop offset="45%" stop-color="#dde6f5"/>
      <stop offset="100%" stop-color="#b8c6db"/>
    </linearGradient>
    <linearGradient id="glass" x1="0%" y1="0%" x2="100%" y2="100%">
      <stop offset="0%" stop-color="rgba(255,255,255,0.95)"/>
      <stop offset="100%" stop-color="rgba(255,255,255,0.42)"/>
    </linearGradient>
  </defs>
  <rect width="128" height="128" rx="30" fill="url(#bg)"/>
  <rect x="14" y="14" width="100" height="100" rx="26" fill="#edf3ff" opacity="0.72"/>
  <rect x="26" y="20" width="42" height="64" rx="14" fill="url(#glass)" stroke="#ffffff" stroke-width="2.5"/>
  <text x="36" y="43" font-family="Sora, Arial, sans-serif" font-size="16" font-weight="800" fill="#10131d">K♠</text>
  <circle cx="92" cy="72" r="21" fill="#ff8f81" opacity="0.92"/>
  <circle cx="92" cy="72" r="13" fill="#ffffff" opacity="0.9"/>
  <path d="M90 63c5 6 8 11 8 15 0 4-3 7-6 7-4 0-6-3-6-7 0-4 2-9 7-15h-3z" fill="#10131d"/>
  <rect x="28" y="90" width="72" height="10" rx="5" fill="#10131d" opacity="0.14"/>
</svg>
